<?xml version="1.0" encoding="utf-8"?>
<!-- Generator: Adobe Illustrator 22.1.0, SVG Export Plug-In . SVG Version: 6.00 Build 0)  -->
<svg version="1.1" id="Layer_1" xmlns="http://www.w3.org/2000/svg" xmlns:xlink="http://www.w3.org/1999/xlink" x="0px" y="0px"
	 viewBox="0 0 40 40" style="enable-background:new 0 0 40 40;" xml:space="preserve">
<style type="text/css">
	.st0{fill:none;stroke:#FFFFFF;stroke-miterlimit:10;}
	.st1{enable-background:new    ;}
	.st2{fill:#FFFFFF;}
</style>
<title>list_3</title>
<g id="Layer_2_1_">
	<g id="Layer_1-2">
		<ellipse class="st0" cx="20" cy="20" rx="19.5" ry="19.5"/>
		<g class="st1">
			<path class="st2" d="M17.8,22.5c0.6,0.7,1.6,1.2,2.7,1.2c1.2,0,2.3-0.8,2.3-2c0-1.4-1.2-2.1-2.6-2.1h-0.8L19,18.8l2.4-2.9
				c0.3-0.4,0.7-0.7,0.7-0.7v0c0,0-0.3,0-1,0h-3.8v-1.4h6.7v1l-3,3.5c1.5,0.1,3.3,1.1,3.3,3.3c0,1.9-1.5,3.6-3.8,3.6
				c-1.3,0-2.7-0.5-3.6-1.5L17.8,22.5z"/>
		</g>
	</g>
</g>
</svg>
