<?xml version="1.0" encoding="utf-8"?>
<!-- Generator: Adobe Illustrator 22.1.0, SVG Export Plug-In . SVG Version: 6.00 Build 0)  -->
<svg version="1.1" id="Layer_1" xmlns="http://www.w3.org/2000/svg" xmlns:xlink="http://www.w3.org/1999/xlink" x="0px" y="0px"
	 viewBox="0 0 1280 5134" style="enable-background:new 0 0 1280 5134;" xml:space="preserve">
<style type="text/css">
	.st0{fill:#262846;}
	.st1{fill:#33365E;}
	.st2{fill:url(#SVGID_1_);}
	.st3{opacity:0.2;fill:none;stroke:#E54BCE;stroke-width:3;stroke-miterlimit:10;enable-background:new    ;}
	.st4{fill:#4B3160;}
</style>
<title>bg</title>
<g>
	<g id="Layer_2_1_">
		<g id="Layer_1-2">
			<path class="st0" d="M641,3722.8c-257.2,0-487.3-115.9-641-298.3V5134h1280V3426.9C1126.3,3607.9,897.1,3722.8,641,3722.8z"/>
			<path class="st1" d="M438.2,1777.2c115.4,4.4,200.1-23.1,276-59.3c-24.7,1.7-49.5,2.5-74.6,2.5c-239.2,0-460.2-77.4-639.5-208.6
				V1631C0,1631.1,102.9,1764.5,438.2,1777.2z"/>
			<path class="st1" d="M1186.7,1572.5c31.3,2.8,62.5,7.5,93.3,14v-75.3C1250,1533.2,1218.8,1553.6,1186.7,1572.5z"/>
			
				<linearGradient id="SVGID_1_" gradientUnits="userSpaceOnUse" x1="640" y1="-2979.5" x2="640" y2="-3962.8" gradientTransform="matrix(1 0 0 1 0 4700)">
				<stop  offset="0" style="stop-color:#DB02BA"/>
				<stop  offset="1" style="stop-color:#8641BF"/>
			</linearGradient>
			<path class="st2" d="M0,737.9v774c179.3,131.2,400.4,208.6,639.5,208.6c239.6,0,461-77.7,640.5-209.3v-774
				c-179.5,131.6-400.9,209.3-640.5,209.3C400.4,946.5,179.3,869.1,0,737.9z"/>
			<path class="st3" d="M55.4,775.4c0,2.7,0,5.3,0,7.9c0,434.6,351.6,787,785.4,787c155.8,0.2,308.2-46.2,437.4-133.3"/>
			<path class="st3" d="M364.5,911.3c144,167.6,357.3,273.7,595.3,273.7c109.7,0.1,218.1-22.8,318.4-67.3"/>
			<path class="st3" d="M0.8,1375.1c121.7,73,260.9,111.5,402.8,111.2c399.7,0,729.7-299.3,779-686.4"/>
			<path class="st0" d="M0,737.9c179.3,131.2,400.4,208.6,639.5,208.6c239.6,0,461-77.7,640.5-209.3V0H0V737.9z"/>
			<path class="st0" d="M438.2,1777.2C102.9,1764.5,0,1631.1,0,1631.1v958.5c0,0,158.9,157.5,359.5,157.5
				c264.5,0,351.9-257.1,597.5-292.5c158.8-22.8,253,32.4,323,75.3v-943.5C858.1,1498.5,796.2,1790.8,438.2,1777.2z"/>
			<path class="st4" d="M1279,3044l0.9-514c-70-42.9-164.1-98.2-322.9-75.3c-245.6,35.3-333,292.5-597.5,292.5
				C158.9,2747.1,0,2589.7,0,2589.7v630.9l0,0v204c153.7,182.4,383.8,298.3,641,298.3c256.1,0,485.3-114.9,639-295.9v-383H1279z"/>
		</g>
	</g>
</g>
<g>
	<path class="st3" d="M1279.2,3824.5c-181.6,124.3-401.4,197.1-638.2,197.1c-237.6,0-458.1-73.3-640.1-198.5"/>
</g>
</svg>
