<svg xmlns="http://www.w3.org/2000/svg" xmlns:xlink="http://www.w3.org/1999/xlink" viewBox="0 0 325 237"><defs><style>.cls-1,.cls-3,.cls-7{fill:none;}.cls-2{fill:url(#linear-gradient);}.cls-3{stroke:#fff;stroke-linejoin:round;}.cls-3,.cls-7{stroke-linecap:round;}.cls-3,.cls-4,.cls-6{opacity:0.5;}.cls-5,.cls-6{fill:#fff;}.cls-7{stroke:#8ed4ff;stroke-miterlimit:10;stroke-width:4px;}</style><linearGradient id="linear-gradient" x1="99.92" y1="85.92" x2="225.08" y2="211.08" gradientUnits="userSpaceOnUse"><stop offset="0" stop-color="#464b6e"/><stop offset="1" stop-color="#373b57"/></linearGradient></defs><title>features_target</title><g id="Layer_2" data-name="Layer 2"><g id="Layer_1-2" data-name="Layer 1"><rect class="cls-1" width="325" height="237"/><circle class="cls-2" cx="162.5" cy="148.5" r="88.5"/><path id="_Path_" data-name="&lt;Path&gt;" class="cls-3" d="M15.07,124.55A7.52,7.52,0,1,1,18.85,118"/><g id="_Group_" data-name="&lt;Group&gt;" class="cls-4"><path class="cls-5" d="M284.77,93.23a6.49,6.49,0,1,0,6.48,6.48A6.48,6.48,0,0,0,284.77,93.23Z"/></g><path id="_Path_2" data-name="&lt;Path&gt;" class="cls-6" d="M57.64,88.4a4.44,4.44,0,1,0,4.44,4.44A4.44,4.44,0,0,0,57.64,88.4Z"/><g id="_Group_2" data-name="&lt;Group&gt;" class="cls-4"><path class="cls-5" d="M203,63.19c0-.81-3.81-1.48-8.77-1.6-.13-5-.8-8.78-1.61-8.78s-1.49,3.81-1.61,8.78c-5,.12-8.78.79-8.78,1.6S186,64.68,191,64.8c.12,5,.79,8.78,1.61,8.78s1.48-3.81,1.61-8.78C199.16,64.68,203,64,203,63.19Z"/></g><ellipse class="cls-7" cx="162.5" cy="148.5" rx="21.95" ry="22"/><line class="cls-7" x1="184.45" y1="148.5" x2="175.67" y2="148.5"/><line class="cls-7" x1="149.33" y1="148.5" x2="140.55" y2="148.5"/><line class="cls-7" x1="162.5" y1="135.3" x2="162.5" y2="126.5"/><line class="cls-7" x1="162.5" y1="170.5" x2="162.5" y2="161.7"/></g></g></svg>