<svg xmlns="http://www.w3.org/2000/svg" xmlns:xlink="http://www.w3.org/1999/xlink" viewBox="0 0 325 237"><defs><style>.cls-1{fill:url(#linear-gradient);}.cls-2,.cls-4{opacity:0.5;}.cls-3{fill:#fff;}.cls-4,.cls-5,.cls-6{fill:none;}.cls-4{stroke:#fff;}.cls-4,.cls-5{stroke-linecap:round;stroke-linejoin:round;}.cls-5{stroke:#5ef1b4;stroke-width:4px;}</style><linearGradient id="linear-gradient" x1="100.92" y1="85.92" x2="226.08" y2="211.08" gradientUnits="userSpaceOnUse"><stop offset="0" stop-color="#464b6e"/><stop offset="1" stop-color="#373b57"/></linearGradient></defs><title>features_bag</title><g id="Layer_2" data-name="Layer 2"><g id="Layer_1-2" data-name="Layer 1"><circle class="cls-1" cx="163.5" cy="148.5" r="88.5"/><g class="cls-2"><path id="_Path_" data-name="&lt;Path&gt;" class="cls-3" d="M307.77,89.23a6.49,6.49,0,1,0,6.48,6.48A6.48,6.48,0,0,0,307.77,89.23Z"/><path id="_Path_2" data-name="&lt;Path&gt;" class="cls-3" d="M27.64,144.4a4.44,4.44,0,1,0,4.44,4.44A4.44,4.44,0,0,0,27.64,144.4Z"/><path id="_Path_3" data-name="&lt;Path&gt;" class="cls-4" d="M201.07,59.55A7.52,7.52,0,1,1,204.85,53"/><path id="_Path_4" data-name="&lt;Path&gt;" class="cls-3" d="M114,211.19c0-.81-3.81-1.48-8.77-1.6-.13-5-.8-8.78-1.61-8.78s-1.49,3.81-1.61,8.78c-5,.12-8.78.79-8.78,1.6S97,212.68,102,212.8c.12,5,.79,8.78,1.61,8.78s1.48-3.81,1.61-8.78C110.16,212.68,114,212,114,211.19Z"/></g><path class="cls-5" d="M148.83,125.5l-7.33,9.2v32.2a4.75,4.75,0,0,0,4.89,4.6h34.22a4.75,4.75,0,0,0,4.89-4.6V134.7l-7.33-9.2Z"/><line class="cls-5" x1="141.5" y1="134.7" x2="185.5" y2="134.7"/><path class="cls-5" d="M173.28,143.9c0,5.08-4.38,9.2-9.78,9.2s-9.78-4.12-9.78-9.2"/><rect class="cls-6" x="131.5" y="116.5" width="64" height="64"/><rect class="cls-6" width="325" height="237"/></g></g></svg>