<svg xmlns="http://www.w3.org/2000/svg" xmlns:xlink="http://www.w3.org/1999/xlink" viewBox="0 0 325 237"><defs><style>.cls-1{fill:url(#linear-gradient);}.cls-2,.cls-3,.cls-5{fill:none;}.cls-3{stroke:#e54bce;stroke-miterlimit:10;stroke-width:4px;}.cls-4{fill:#fff;}.cls-4,.cls-5{opacity:0.5;}.cls-5{stroke:#fff;stroke-linecap:round;stroke-linejoin:round;}</style><linearGradient id="linear-gradient" x1="99.92" y1="85.92" x2="225.08" y2="211.08" gradientUnits="userSpaceOnUse"><stop offset="0" stop-color="#464b6e"/><stop offset="1" stop-color="#373b57"/></linearGradient></defs><title>features_accaunts</title><g id="Layer_2" data-name="Layer 2"><g id="Layer_1-2" data-name="Layer 1"><circle class="cls-1" cx="162.5" cy="148.5" r="88.5"/><rect class="cls-2" width="325" height="237"/><path class="cls-3" d="M172.5,160.5v-3.1a7,7,0,0,0-7-6.9h-14a7,7,0,0,0-7,6.9v3.1"/><ellipse class="cls-3" cx="158.99" cy="137.67" rx="7.09" ry="6.9"/><rect class="cls-3" x="136.5" y="121.5" width="45" height="46" rx="5" ry="5"/><path class="cls-3" d="M188.5,132.5v40a3,3,0,0,1-2.93,3H146.5"/><rect class="cls-2" x="131" y="117" width="64" height="64"/><path id="_Path_" data-name="&lt;Path&gt;" class="cls-4" d="M294.77,83.23a6.49,6.49,0,1,0,6.48,6.48A6.48,6.48,0,0,0,294.77,83.23Z"/><path id="_Path_2" data-name="&lt;Path&gt;" class="cls-4" d="M232.15,20.74a5.36,5.36,0,1,0,5.35,5.35A5.36,5.36,0,0,0,232.15,20.74Z"/><path id="_Path_3" data-name="&lt;Path&gt;" class="cls-4" d="M241.15,215.74a5.36,5.36,0,1,0,5.35,5.35A5.36,5.36,0,0,0,241.15,215.74Z"/><path id="_Path_4" data-name="&lt;Path&gt;" class="cls-4" d="M26.64,144.4a4.44,4.44,0,1,0,4.44,4.44A4.44,4.44,0,0,0,26.64,144.4Z"/><path id="_Path_5" data-name="&lt;Path&gt;" class="cls-4" d="M123,35.19c0-.81-3.81-1.48-8.77-1.6-.13-5-.8-8.78-1.61-8.78s-1.49,3.81-1.61,8.78c-5,.12-8.78.79-8.78,1.6S106,36.68,111,36.8c.12,5,.79,8.78,1.61,8.78s1.48-3.81,1.61-8.78C119.16,36.68,123,36,123,35.19Z"/><path id="_Path_6" data-name="&lt;Path&gt;" class="cls-5" d="M296.07,87.55A7.52,7.52,0,1,1,299.85,81"/></g></g></svg>