<svg xmlns="http://www.w3.org/2000/svg" xmlns:xlink="http://www.w3.org/1999/xlink" viewBox="0 0 515 676"><defs><style>.cls-1{fill:none;}.cls-2{fill:#464a6f;}.cls-3{fill:#262846;}.cls-16,.cls-17,.cls-19,.cls-20,.cls-21,.cls-22,.cls-23,.cls-24,.cls-3{opacity:0.5;}.cls-16,.cls-4{fill:#e4dcee;}.cls-5{fill:#bad4ea;}.cls-6,.cls-8{font-size:6.15px;fill:#f5f1f4;}.cls-12,.cls-6{font-family:Montserrat-Black, Montserrat Black;}.cls-6{letter-spacing:0.16em;}.cls-7{letter-spacing:0.2em;}.cls-8{font-family:Montserrat-Bold, Montserrat Bold;}.cls-10,.cls-11,.cls-9{font-weight:700;}.cls-9{letter-spacing:-0.01em;}.cls-11{letter-spacing:-0.01em;}.cls-13{font-family:Montserrat-Light, Montserrat Light;letter-spacing:0em;}.cls-14{fill:#fff;}.cls-15{fill:#8641bf;}.cls-17{fill:url(#linear-gradient);}.cls-18{fill:#ffd059;}.cls-19{fill:url(#linear-gradient-2);}.cls-20{fill:url(#linear-gradient-3);}.cls-21{fill:url(#linear-gradient-4);}.cls-22{fill:url(#linear-gradient-5);}.cls-23{fill:url(#linear-gradient-6);}.cls-24{fill:url(#linear-gradient-7);}</style><linearGradient id="linear-gradient" x1="77" y1="295" x2="77" y2="272" gradientUnits="userSpaceOnUse"><stop offset="0" stop-color="#ffd059"/><stop offset="1" stop-color="#ffd059" stop-opacity="0"/></linearGradient><linearGradient id="linear-gradient-2" x1="446" y1="384" x2="446" y2="361" xlink:href="#linear-gradient"/><linearGradient id="linear-gradient-3" x1="86" y1="545" x2="86" y2="522" xlink:href="#linear-gradient"/><linearGradient id="linear-gradient-4" x1="206" y1="46" x2="206" y2="23" xlink:href="#linear-gradient"/><linearGradient id="linear-gradient-5" x1="41.5" y1="148.49" x2="41.5" y2="125" xlink:href="#linear-gradient"/><linearGradient id="linear-gradient-6" x1="-174.5" y1="78.49" x2="-174.5" y2="55" gradientTransform="matrix(-1, 0, 0, 1, 251, 0)" xlink:href="#linear-gradient"/><linearGradient id="linear-gradient-7" x1="-99.5" y1="131.49" x2="-99.5" y2="108" gradientTransform="matrix(-1, 0, 0, 1, 251, 0)" xlink:href="#linear-gradient"/></defs><title>instruction_1</title><g id="Layer_2" data-name="Layer 2"><g id="Layer_1-2" data-name="Layer 1"><rect class="cls-1" width="515" height="676"/><rect class="cls-2" x="114" y="49" width="281" height="568" rx="23.61" ry="23.61"/><path class="cls-3" d="M178.31,63H153.42C137.17,63,124,76.42,124,93V570H384V91c0-16.56-13.13-30-29.32-30H326v4.46A17.38,17.38,0,0,1,308.78,83H195.59a17.37,17.37,0,0,1-17.21-17.13Z"/><rect class="cls-4" x="124" y="304" width="260" height="268"/><path class="cls-5" d="M260.84,68H235.32a3,3,0,0,1-2.94-3h0a3,3,0,0,1,2.94-3h25.52a3,3,0,0,1,2.94,3h0A3,3,0,0,1,260.84,68Z"/><path class="cls-5" d="M275.57,64.71a3.28,3.28,0,1,1-3.28-3.34A3.32,3.32,0,0,1,275.57,64.71Z"/><text class="cls-6" transform="translate(172.85 380.23) scale(0.98 1)">L<tspan class="cls-7" x="3.89" y="0">OREM IPSUM DO</tspan><tspan x="62.99" y="0">L</tspan><tspan class="cls-7" x="66.88" y="0">OR</tspan></text><text class="cls-8" transform="translate(172.85 396.03) scale(0.98 1)"><tspan class="cls-9">L</tspan><tspan class="cls-10" x="2.81" y="0">o</tspan><tspan class="cls-11" x="6.19" y="0">r</tspan><tspan class="cls-10" x="8.14" y="0">em /</tspan><tspan class="cls-12" x="19.75" y="0"> </tspan><tspan class="cls-13" x="21.05" y="0">ipsum</tspan></text><path class="cls-14" d="M255.39,173.87c6.92,0,7.74,0,10.47.15a14.27,14.27,0,0,1,4.81.91,8,8,0,0,1,3,2,8.24,8.24,0,0,1,1.94,3,14.54,14.54,0,0,1,.89,4.9c.13,2.78.15,3.61.15,10.66s0,7.88-.15,10.66a14.59,14.59,0,0,1-.89,4.9,8.24,8.24,0,0,1-1.94,3,8,8,0,0,1-3,2,14.27,14.27,0,0,1-4.81.91c-2.73.12-3.55.15-10.47.15s-7.73,0-10.46-.15a14.15,14.15,0,0,1-4.81-.91,8.09,8.09,0,0,1-3-2,8.35,8.35,0,0,1-1.93-3,14.79,14.79,0,0,1-.9-4.9c-.12-2.78-.15-3.61-.15-10.66s0-7.88.15-10.66a14.73,14.73,0,0,1,.9-4.9,8.35,8.35,0,0,1,1.93-3,8.09,8.09,0,0,1,3-2,14.15,14.15,0,0,1,4.81-.91c2.73-.13,3.55-.15,10.46-.15m0-4.76c-7,0-7.91,0-10.67.16a18.81,18.81,0,0,0-6.29,1.23,12.73,12.73,0,0,0-4.59,3,12.92,12.92,0,0,0-3,4.68,19.7,19.7,0,0,0-1.21,6.4c-.12,2.82-.15,3.71-.15,10.88s0,8.06.15,10.88a19.7,19.7,0,0,0,1.21,6.4,12.92,12.92,0,0,0,3,4.68,12.73,12.73,0,0,0,4.59,3,18.81,18.81,0,0,0,6.29,1.23c2.76.13,3.64.16,10.67.16s7.92,0,10.68-.16a18.81,18.81,0,0,0,6.29-1.23,12.7,12.7,0,0,0,4.58-3,13,13,0,0,0,3-4.68,19.7,19.7,0,0,0,1.21-6.4c.12-2.82.15-3.71.15-10.88s0-8.06-.15-10.88a19.7,19.7,0,0,0-1.21-6.4,13,13,0,0,0-3-4.68,12.7,12.7,0,0,0-4.58-3,18.81,18.81,0,0,0-6.29-1.23c-2.76-.13-3.64-.16-10.68-.16Z"/><path class="cls-14" d="M255.39,182a13.55,13.55,0,1,0,13.3,13.55A13.42,13.42,0,0,0,255.39,182Zm0,22.35a8.8,8.8,0,1,1,8.64-8.8A8.72,8.72,0,0,1,255.39,204.3Z"/><ellipse class="cls-14" cx="269.22" cy="181.41" rx="3.11" ry="3.17"/><rect class="cls-14" x="143" y="284" width="222" height="51" rx="6.19" ry="6.19"/><rect class="cls-14" x="143" y="352" width="222" height="51" rx="6.19" ry="6.19"/><rect class="cls-15" x="143" y="423" width="222" height="51" rx="6.19" ry="6.19"/><polygon class="cls-16" points="72.09 76.88 76.04 84.09 83.25 88.03 76.04 91.98 72.09 99.19 68.15 91.98 60.94 88.03 68.15 84.09 72.09 76.88"/><polygon class="cls-16" points="83.25 4.83 85.26 8.51 88.93 10.52 85.26 12.52 83.25 16.19 81.24 12.52 77.57 10.52 81.24 8.51 83.25 4.83"/><polygon class="cls-16" points="448.1 282.85 451.98 289.95 459.08 293.83 451.98 297.72 448.1 304.82 444.22 297.72 437.12 293.83 444.22 289.95 448.1 282.85"/><polygon class="cls-16" points="445.38 427.08 448.2 432.24 453.35 435.06 448.2 437.88 445.38 443.04 442.56 437.88 437.4 435.06 442.56 432.24 445.38 427.08"/><polygon class="cls-16" points="496.81 371.75 498.68 375.17 502.09 377.04 498.68 378.9 496.81 382.32 494.94 378.9 491.52 377.04 494.94 375.17 496.81 371.75"/><polygon class="cls-16" points="496.81 333.45 497.45 334.62 498.62 335.27 497.45 335.91 496.81 337.08 496.16 335.91 494.99 335.27 496.16 334.62 496.81 333.45"/><polygon class="cls-16" points="60.94 44.45 61.58 45.62 62.75 46.27 61.58 46.91 60.94 48.08 60.3 46.91 59.12 46.27 60.3 45.62 60.94 44.45"/><rect class="cls-17" x="67" y="272" width="20" height="23"/><circle class="cls-18" cx="77" cy="296" r="10"/><rect class="cls-19" x="436" y="361" width="20" height="23"/><circle class="cls-18" cx="446" cy="385" r="10"/><rect class="cls-20" x="76" y="522" width="20" height="23"/><ellipse class="cls-18" cx="85" cy="545" rx="10.08" ry="7.9" transform="translate(-108.23 28.36) rotate(-11.64)"/><rect class="cls-21" x="196" y="23" width="20" height="23"/><ellipse class="cls-18" cx="205" cy="46" rx="10.08" ry="7.9" transform="translate(-5.07 42.31) rotate(-11.64)"/><polygon class="cls-22" points="51 125 32 125 32 144.33 51 148.49 51 125"/><ellipse class="cls-18" cx="41.5" cy="145.5" rx="5.89" ry="9.88" transform="translate(-109.39 134.28) rotate(-69.83)"/><polygon class="cls-23" points="416 55 435 55 435 74.33 416 78.49 416 55"/><ellipse class="cls-18" cx="425.5" cy="75.5" rx="9.88" ry="5.89" transform="translate(0.07 151.37) rotate(-20.17)"/><polygon class="cls-24" points="341 108 360 108 360 127.33 341 131.49 341 108"/><ellipse class="cls-18" cx="350.5" cy="128.5" rx="9.88" ry="5.89" transform="translate(-22.81 128.76) rotate(-20.17)"/><ellipse class="cls-18" cx="417.5" cy="196" rx="11.59" ry="4.47" transform="translate(-31.5 301.45) rotate(-38.36)"/><ellipse class="cls-18" cx="311" cy="13.5" rx="4.37" ry="11.49" transform="translate(200.47 304.51) rotate(-71.69)"/><ellipse class="cls-18" cx="44.5" cy="396.5" rx="11.54" ry="5.76" transform="translate(-324.67 245.15) rotate(-61.3)"/><ellipse class="cls-18" cx="165.5" cy="194" rx="5.92" ry="11.67" transform="translate(-89.36 185.51) rotate(-47.62)"/></g></g></svg>