<svg xmlns="http://www.w3.org/2000/svg" viewBox="0 0 64 64"><defs><style>.cls-1,.cls-2{fill:none;}.cls-2{stroke:#ffd059;stroke-miterlimit:10;stroke-width:4px;}</style></defs><title>main_features_gift</title><g id="Layer_2" data-name="Layer 2"><g id="Layer_1-2" data-name="Layer 1"><rect class="cls-1" width="64" height="64"/><path class="cls-2" d="M49,33V51a8,8,0,0,1-8,8H15.05a8,8,0,0,1-8-8V33"/><rect class="cls-2" x="2" y="19" width="52" height="13" rx="5.42" ry="5.42"/><line class="cls-2" x1="28" y1="59" x2="28" y2="19"/><path class="cls-2" d="M27.51,19H16a6.67,6.67,0,0,1-6.71-5.7A6.52,6.52,0,0,1,15.78,6C24.9,6,27.51,19,27.51,19Z"/><path class="cls-2" d="M27.51,19H39a6.67,6.67,0,0,0,6.71-5.7A6.52,6.52,0,0,0,39.23,6C30.11,6,27.51,19,27.51,19Z"/></g></g></svg>