<svg xmlns="http://www.w3.org/2000/svg" viewBox="0 0 80 170"><defs><style>.cls-1{fill:#fbfce6;}.cls-2{fill:none;}</style></defs><title>star_right</title><g id="Layer_2" data-name="Layer 2"><g id="Layer_1-2" data-name="Layer 1"><polygon class="cls-1" points="19.1 5.85 22.98 12.95 30.09 16.84 22.98 20.72 19.1 27.82 15.22 20.72 8.12 16.84 15.22 12.95 19.1 5.85"/><polygon class="cls-1" points="16.38 150.08 19.2 155.24 24.35 158.06 19.2 160.88 16.38 166.03 13.56 160.88 8.4 158.06 13.56 155.24 16.38 150.08"/><polygon class="cls-1" points="67.81 94.75 69.67 98.17 73.09 100.03 69.67 101.9 67.81 105.32 65.94 101.9 62.52 100.03 65.94 98.17 67.81 94.75"/><polygon class="cls-1" points="67.81 56.45 68.45 57.62 69.62 58.27 68.45 58.91 67.81 60.08 67.16 58.91 65.99 58.27 67.16 57.62 67.81 56.45"/><rect class="cls-2" width="80" height="170"/></g></g></svg>